:SAMPLES-PER-SECOND 30
:FULLY-SPECIFIED
:DEGREES
109
root  -34.2612 38.9229 -33.5531 29.3671 -71.5827 -21.097
RightUpLeg  -34.9794 -4.12221 0.693359
RightLeg  30.9695 4.60774 2.7886
RightFoot  -2.92434 -0.806071 10.6295
RightToes  0.00048216 0.542163 -0.142577
Spine  59.3618 -4.69331 7.35369
Spine1  5.55121 1.43899 -7.09577
HEad  -47.4433 28.2046 -41.2189
LeftShoulder1  9.53355 -19.5477 -35.2326
LeftArm  -27.424 -18.4074 -28.6928
LeftForeArm  14.2383 -65.5445 -24.4234
LeftHand  -0.25398 0.0180481 5.50724
RightShoulder  5.72696 12.7084 29.3357
RightArm  -20.6183 16.5246 20.1681
RightForeArm  -19.6168 63.0301 24.8931
RightHand  -0.740167 -14.318 7.94594
LeftUpLeg  -36.1502 19.6868 -5.16363
LeftLeg  10.8236 5.58963 -4.92944
LeftFoot  12.0583 -3.63522 17.0676
LeftToes  1.06244e-005 4.65856e-005 -8.18505e-006
110
root  -33.8304 38.8805 -34.0068 24.3879 -69.9925 -19.1559
RightUpLeg  -31.1657 -1.1805 0.0608804
RightLeg  36.6989 6.75694 5.1397
RightFoot  -6.38544 -0.520988 10.9009
RightToes  0.00048216 0.542163 -0.142577
Spine  57.7232 -4.55233 7.07458
Spine1  5.53987 1.17091 -6.87157
HEad  -48.11 32.1075 -43.9361
LeftShoulder1  9.96116 -18.914 -38.2322
LeftArm  -26.979 -10.4966 -27.4093
LeftForeArm  20.8774 -70.3178 -31.6903
LeftHand  -0.25398 0.0180481 5.50724
RightShoulder  5.77497 12.2701 30.6462
RightArm  -18.0528 12.5587 21.1488
RightForeArm  -14.0334 66.6446 29.4715
RightHand  -0.906916 -16.0253 8.26781
LeftUpLeg  -32.2135 16.2972 -2.06846
LeftLeg  8.90082 7.99557 -5.86834
LeftFoot  13.5898 -3.68273 16.1638
LeftToes  1.06244e-005 4.65856e-005 -8.18505e-006
111
root  -33.4112 38.743 -34.5338 18.4791 -67.5652 -16.1716
RightUpLeg  -26.5096 -0.323978 0.459649
RightLeg  39.8892 8.59045 7.33002
RightFoot  -9.37467 -0.21171 8.1172
RightToes  0.00048216 0.542163 -0.142577
Spine  56.1573 -4.50695 6.95486
Spine1  5.58676 0.919345 -6.37812
HEad  -48.1256 35.3137 -45.8278
LeftShoulder1  10.4675 -18.2882 -41.6541
LeftArm  -26.0369 -3.65134 -25.0155
LeftForeArm  30.2442 -74.2795 -41.9795
LeftHand  -0.25398 0.0180481 5.50724
RightShoulder  5.65447 11.7736 31.0532
RightArm  -15.8461 8.5395 21.7874
RightForeArm  -7.91197 69.8524 35.1791
RightHand  -1.13635 -17.7863 9.05286
LeftUpLeg  -29.4219 14.3034 -1.05765
LeftLeg  8.01842 7.60437 -6.55414
LeftFoot  15.026 -3.74402 15.4855
LeftToes  1.06244e-005 4.65856e-005 -8.18505e-006
112
root  -32.9766 38.612 -35.0748 13.6435 -64.2276 -13.7932
RightUpLeg  -21.9186 -1.48 1.54166
RightLeg  39.2507 7.21622 6.04131
RightFoot  -12.6497 -0.0434936 3.72158
RightToes  0.00048216 0.542163 -0.142577
Spine  54.2249 -4.77015 7.87995
Spine1  5.75047 0.678067 -5.78862
HEad  -47.5182 38.1099 -47.2904
LeftShoulder1  10.6369 -17.7207 -43.589
LeftArm  -24.8674 2.12745 -23.9238
LeftForeArm  44.2022 -77.2678 -56.4404
LeftHand  -0.25398 0.0180481 5.50724
RightShoulder  5.45335 11.2636 30.9739
RightArm  -14.036 4.6002 21.9957
RightForeArm  -1.65089 72.7079 42.8132
RightHand  -1.12772 -18.648 8.32044
LeftUpLeg  -27.5302 13.4484 -1.1983
LeftLeg  7.41997 5.05332 -6.90083
LeftFoot  16.2991 -3.39916 13.3673
LeftToes  1.06244e-005 4.65856e-005 -8.18505e-006
113
root  -32.493 38.5548 -35.5753 10.3642 -60.5732 -12.0172
RightUpLeg  -19.1931 -3.84131 2.30685
RightLeg  36.7816 3.85705 2.82358
RightFoot  -14.8661 -0.0729218 0.701496
RightToes  0.00048216 0.542163 -0.142577
Spine  51.5877 -5.14458 9.73452
Spine1  6.01917 0.771013 -5.73448
HEad  -46.9772 40.3326 -48.7361
LeftShoulder1  10.6707 -17.4404 -44.3568
LeftArm  -23.6102 6.58227 -23.9721
LeftForeArm  61.364 -78.9103 -73.6355
LeftHand  -0.25398 0.0180481 5.50724
RightShoulder  5.36901 10.9462 31.2043
RightArm  -12.7732 0.818087 21.1554
RightForeArm  5.21842 75.0994 53.1456
RightHand  -0.757861 -18.6727 5.19897
LeftUpLeg  -26.286 12.3956 -1.22385
LeftLeg  6.29656 3.23445 -7.22692
LeftFoot  16.614 -1.50637 5.60574
LeftToes  1.06244e-005 4.65856e-005 -8.18505e-006
114
root  -31.9542 38.5661 -36 8.03793 -56.8123 -10.616
RightUpLeg  -18.3305 -7.11104 2.33154
RightLeg  35.2607 1.94717 1.20699
RightFoot  -14.6413 -0.101854 -0.0925773
RightToes  0.00048216 0.542163 -0.142577
Spine  48.75 -5.52686 11.9775
Spine1  6.50765 1.18697 -6.29307
HEad  -46.9463 41.8491 -50.3486
LeftShoulder1  10.7655 -17.255 -45.1899
LeftArm  -22.3763 9.44204 -23.9841
LeftForeArm  76.5733 -79.3545 -88.8107
LeftHand  -0.25398 0.0180481 5.50724
RightShoulder  5.38443 10.8476 31.5702
RightArm  -12.2177 -2.57672 19.9316
RightForeArm  13.2232 76.6847 64.9327
RightHand  -0.324776 -18.5996 1.61393
LeftUpLeg  -25.2432 12.022 -0.882824
LeftLeg  5.11843 1.85564 -7.91655
LeftFoot  15.1201 1.95736 -8.80205
LeftToes  1.06244e-005 4.65856e-005 -8.18505e-006
115
root  -31.4261 38.6711 -36.3361 5.95545 -52.583 -9.58288
RightUpLeg  -17.4129 -11.4029 1.80311
RightLeg  34.4247 2.25924 1.39931
RightFoot  -13.0285 -0.0843726 0.272924
RightToes  0.00048216 0.542163 -0.142577
Spine  45.9476 -5.84988 14.2201
Spine1  7.11141 1.51172 -6.71404
HEad  -46.6545 42.9542 -51.5473
LeftShoulder1  10.7912 -17.0077 -45.8706
LeftArm  -21.3951 11.1768 -24.3597
LeftForeArm  86.0404 -79.2606 -98.0895
LeftHand  -0.25398 0.0180481 5.50724
RightShoulder  5.35332 10.7053 31.7286
RightArm  -12.3725 -5.61739 19.4243
RightForeArm  21.1584 77.4411 75.0992
RightHand  -0.0916173 -18.7347 -0.364342
LeftUpLeg  -24.2649 15.3404 -1.69885
LeftLeg  5.55372 -3.1637 -8.48445
LeftFoot  11.8349 4.7086 -23.0772
LeftToes  1.06244e-005 4.65856e-005 -8.18505e-006
116
root  -30.9215 38.9361 -36.618 3.67519 -47.679 -8.36397
RightUpLeg  -15.3026 -15.9247 0.673402
RightLeg  32.2157 2.37148 1.36555
RightFoot  -11.3555 -0.0763852 0.706732
RightToes  0.00048216 0.542163 -0.142577
Spine  43.5837 -5.92788 15.7346
Spine1  7.3217 1.63208 -6.62198
HEad  -45.4689 44.3128 -51.7943
LeftShoulder1  10.7256 -16.8134 -46.0344
LeftArm  -20.6046 12.7416 -25.223
LeftForeArm  90.41 -79.1572 -101.928
LeftHand  -0.25398 0.0180481 5.50724
RightShoulder  5.23957 10.331 31.9287
RightArm  -12.8663 -8.83679 19.6752
RightForeArm  28.5689 77.749 83.12
RightHand  -0.0210283 -18.8071 -0.957727
LeftUpLeg  -24.6436 23.4348 -5.56177
LeftLeg  9.55992 -12.7014 -7.86086
LeftFoot  7.52817 4.75521 -28.2008
LeftToes  1.06244e-005 4.65856e-005 -8.18505e-006
